<mxfile host="app.diagrams.net" modified="2023-09-17T08:13:23.120Z" agent="Mozilla/5.0 (Macintosh; Intel Mac OS X 10_15_7) AppleWebKit/537.36 (KHTML, like Gecko) Chrome/116.0.0.0 Safari/537.36" etag="pYmkYiBDjQDmqugHt4Gu" version="21.6.8" type="github">
  <diagram name="Page-1" id="e7e014a7-5840-1c2e-5031-d8a46d1fe8dd">
    <mxGraphModel dx="954" dy="610" grid="1" gridSize="10" guides="1" tooltips="1" connect="1" arrows="1" fold="1" page="1" pageScale="1" pageWidth="1169" pageHeight="826" background="none" math="0" shadow="0">
      <root>
        <mxCell id="0" />
        <mxCell id="1" parent="0" />
        <mxCell id="GGDaWZ4xMADdUApHqGQR-47" style="edgeStyle=orthogonalEdgeStyle;rounded=0;orthogonalLoop=1;jettySize=auto;html=1;exitX=0.5;exitY=0.5;exitDx=0;exitDy=0;exitPerimeter=0;entryX=0.5;entryY=1;entryDx=0;entryDy=0;" parent="1" source="GGDaWZ4xMADdUApHqGQR-41" target="GGDaWZ4xMADdUApHqGQR-45" edge="1">
          <mxGeometry relative="1" as="geometry" />
        </mxCell>
        <mxCell id="GGDaWZ4xMADdUApHqGQR-41" value="Actor" style="shape=umlActor;verticalLabelPosition=bottom;verticalAlign=top;html=1;outlineConnect=0;" parent="1" vertex="1">
          <mxGeometry x="30" y="196" width="30" height="60" as="geometry" />
        </mxCell>
        <mxCell id="GGDaWZ4xMADdUApHqGQR-48" style="edgeStyle=orthogonalEdgeStyle;rounded=0;orthogonalLoop=1;jettySize=auto;html=1;exitX=0.5;exitY=0.5;exitDx=0;exitDy=0;exitPerimeter=0;entryX=0.5;entryY=1;entryDx=0;entryDy=0;" parent="1" source="GGDaWZ4xMADdUApHqGQR-42" target="GGDaWZ4xMADdUApHqGQR-45" edge="1">
          <mxGeometry relative="1" as="geometry" />
        </mxCell>
        <mxCell id="GGDaWZ4xMADdUApHqGQR-42" value="Actor" style="shape=umlActor;verticalLabelPosition=bottom;verticalAlign=top;html=1;outlineConnect=0;" parent="1" vertex="1">
          <mxGeometry x="30" y="320" width="30" height="60" as="geometry" />
        </mxCell>
        <mxCell id="GGDaWZ4xMADdUApHqGQR-49" style="edgeStyle=orthogonalEdgeStyle;rounded=0;orthogonalLoop=1;jettySize=auto;html=1;exitX=0.5;exitY=0.5;exitDx=0;exitDy=0;exitPerimeter=0;entryX=0.5;entryY=1;entryDx=0;entryDy=0;" parent="1" source="GGDaWZ4xMADdUApHqGQR-43" target="GGDaWZ4xMADdUApHqGQR-45" edge="1">
          <mxGeometry relative="1" as="geometry" />
        </mxCell>
        <mxCell id="GGDaWZ4xMADdUApHqGQR-43" value="Actor" style="shape=umlActor;verticalLabelPosition=bottom;verticalAlign=top;html=1;outlineConnect=0;" parent="1" vertex="1">
          <mxGeometry x="30" y="430" width="30" height="60" as="geometry" />
        </mxCell>
        <mxCell id="GGDaWZ4xMADdUApHqGQR-50" style="edgeStyle=orthogonalEdgeStyle;rounded=0;orthogonalLoop=1;jettySize=auto;html=1;exitX=0.5;exitY=0.5;exitDx=0;exitDy=0;exitPerimeter=0;entryX=0.5;entryY=1;entryDx=0;entryDy=0;" parent="1" source="GGDaWZ4xMADdUApHqGQR-44" target="GGDaWZ4xMADdUApHqGQR-45" edge="1">
          <mxGeometry relative="1" as="geometry" />
        </mxCell>
        <mxCell id="GGDaWZ4xMADdUApHqGQR-44" value="Actor" style="shape=umlActor;verticalLabelPosition=bottom;verticalAlign=top;html=1;outlineConnect=0;" parent="1" vertex="1">
          <mxGeometry x="30" y="540" width="30" height="60" as="geometry" />
        </mxCell>
        <mxCell id="GGDaWZ4xMADdUApHqGQR-51" style="edgeStyle=orthogonalEdgeStyle;rounded=0;orthogonalLoop=1;jettySize=auto;html=1;exitX=0.5;exitY=0;exitDx=0;exitDy=0;" parent="1" source="GGDaWZ4xMADdUApHqGQR-45" edge="1">
          <mxGeometry relative="1" as="geometry">
            <mxPoint x="280" y="403" as="targetPoint" />
          </mxGeometry>
        </mxCell>
        <mxCell id="GGDaWZ4xMADdUApHqGQR-45" value="Firewall" style="rounded=1;whiteSpace=wrap;html=1;direction=south;fillColor=#0050ef;fontColor=#ffffff;strokeColor=#001DBC;" parent="1" vertex="1">
          <mxGeometry x="150" y="196" width="50" height="414" as="geometry" />
        </mxCell>
        <mxCell id="QrdRmQsnh4LrylykVyFY-2" style="edgeStyle=orthogonalEdgeStyle;rounded=0;orthogonalLoop=1;jettySize=auto;html=1;exitX=1;exitY=0.5;exitDx=0;exitDy=0;" parent="1" source="F1sbadLG9EF_W8NqqoBQ-2" target="QrdRmQsnh4LrylykVyFY-1" edge="1">
          <mxGeometry relative="1" as="geometry" />
        </mxCell>
        <mxCell id="GGDaWZ4xMADdUApHqGQR-52" value="ICOS" style="whiteSpace=wrap;html=1;aspect=fixed;fillColor=#1ba1e2;fontColor=#ffffff;strokeColor=#006EAF;" parent="1" vertex="1">
          <mxGeometry x="760" y="240" width="80" height="80" as="geometry" />
        </mxCell>
        <mxCell id="GGDaWZ4xMADdUApHqGQR-54" value="ETrack" style="whiteSpace=wrap;html=1;aspect=fixed;fillColor=#1ba1e2;fontColor=#ffffff;strokeColor=#006EAF;" parent="1" vertex="1">
          <mxGeometry x="760" y="640" width="80" height="80" as="geometry" />
        </mxCell>
        <mxCell id="QrdRmQsnh4LrylykVyFY-6" value="Request Routing&lt;br&gt;API Customization&lt;br&gt;Input Payload Validation&lt;br&gt;Authentication and Authorization&lt;br&gt;Rate Limiting and Throttling&lt;br&gt;Security&lt;br&gt;Request and Response Transformation&lt;br&gt;Caching&lt;br&gt;Logging and Monitoring&lt;br&gt;Analytics and Reporting&lt;br&gt;Response Aggregation&lt;br&gt;Error Handling&lt;br&gt;Scalability&lt;br&gt;Version Management" style="text;html=1;strokeColor=none;fillColor=none;align=center;verticalAlign=middle;whiteSpace=wrap;rounded=0;" parent="1" vertex="1">
          <mxGeometry x="300" y="441.5" width="240" height="230" as="geometry" />
        </mxCell>
        <mxCell id="3WCHBY3nuAsbJHcaptnd-1" value="http(s)" style="text;html=1;strokeColor=none;fillColor=none;align=center;verticalAlign=middle;whiteSpace=wrap;rounded=0;" parent="1" vertex="1">
          <mxGeometry x="660" y="250" width="70" height="21.5" as="geometry" />
        </mxCell>
        <mxCell id="F1sbadLG9EF_W8NqqoBQ-3" style="edgeStyle=orthogonalEdgeStyle;rounded=0;orthogonalLoop=1;jettySize=auto;html=1;entryX=0;entryY=0.5;entryDx=0;entryDy=0;" edge="1" parent="1" source="F1sbadLG9EF_W8NqqoBQ-1" target="F1sbadLG9EF_W8NqqoBQ-2">
          <mxGeometry relative="1" as="geometry" />
        </mxCell>
        <mxCell id="F1sbadLG9EF_W8NqqoBQ-1" value="API Gateway" style="rounded=1;whiteSpace=wrap;html=1;fillColor=#d5e8d4;strokeColor=#82b366;" vertex="1" parent="1">
          <mxGeometry x="280" y="370" width="120" height="63" as="geometry" />
        </mxCell>
        <mxCell id="F1sbadLG9EF_W8NqqoBQ-4" style="edgeStyle=orthogonalEdgeStyle;rounded=0;orthogonalLoop=1;jettySize=auto;html=1;entryX=0;entryY=0.5;entryDx=0;entryDy=0;exitX=0.5;exitY=0;exitDx=0;exitDy=0;" edge="1" parent="1" source="F1sbadLG9EF_W8NqqoBQ-2" target="GGDaWZ4xMADdUApHqGQR-52">
          <mxGeometry relative="1" as="geometry" />
        </mxCell>
        <mxCell id="F1sbadLG9EF_W8NqqoBQ-2" value="Integration Service" style="rounded=1;whiteSpace=wrap;html=1;fillColor=#d5e8d4;strokeColor=#82b366;" vertex="1" parent="1">
          <mxGeometry x="460" y="370" width="110" height="63" as="geometry" />
        </mxCell>
        <mxCell id="F1sbadLG9EF_W8NqqoBQ-5" value="Utility" style="text;html=1;strokeColor=none;fillColor=none;align=center;verticalAlign=middle;whiteSpace=wrap;rounded=0;" vertex="1" parent="1">
          <mxGeometry x="690" y="370" width="60" height="30" as="geometry" />
        </mxCell>
        <mxCell id="F1sbadLG9EF_W8NqqoBQ-6" value="FTP" style="shape=parallelogram;perimeter=parallelogramPerimeter;whiteSpace=wrap;html=1;fixedSize=1;fillColor=#ffe6cc;strokeColor=#d79b00;" vertex="1" parent="1">
          <mxGeometry x="750" y="540" width="120" height="60" as="geometry" />
        </mxCell>
        <mxCell id="QrdRmQsnh4LrylykVyFY-1" value="DB" style="shape=cylinder3;whiteSpace=wrap;html=1;boundedLbl=1;backgroundOutline=1;size=15;fillColor=#e1d5e7;strokeColor=#9673a6;" parent="1" vertex="1">
          <mxGeometry x="770" y="361.5" width="60" height="80" as="geometry" />
        </mxCell>
        <mxCell id="F1sbadLG9EF_W8NqqoBQ-13" value="" style="endArrow=classic;html=1;rounded=0;entryX=0;entryY=0.5;entryDx=0;entryDy=0;exitX=1;exitY=0.75;exitDx=0;exitDy=0;" edge="1" parent="1" source="F1sbadLG9EF_W8NqqoBQ-2" target="F1sbadLG9EF_W8NqqoBQ-6">
          <mxGeometry width="50" height="50" relative="1" as="geometry">
            <mxPoint x="460" y="480" as="sourcePoint" />
            <mxPoint x="510" y="430" as="targetPoint" />
          </mxGeometry>
        </mxCell>
        <mxCell id="F1sbadLG9EF_W8NqqoBQ-15" value="" style="endArrow=classic;html=1;rounded=0;entryX=0;entryY=0.5;entryDx=0;entryDy=0;exitX=0.75;exitY=1;exitDx=0;exitDy=0;" edge="1" parent="1" source="F1sbadLG9EF_W8NqqoBQ-2" target="GGDaWZ4xMADdUApHqGQR-54">
          <mxGeometry width="50" height="50" relative="1" as="geometry">
            <mxPoint x="460" y="480" as="sourcePoint" />
            <mxPoint x="510" y="430" as="targetPoint" />
          </mxGeometry>
        </mxCell>
        <mxCell id="F1sbadLG9EF_W8NqqoBQ-16" value="SFTP" style="text;html=1;strokeColor=none;fillColor=none;align=center;verticalAlign=middle;whiteSpace=wrap;rounded=0;" vertex="1" parent="1">
          <mxGeometry x="690" y="490" width="70" height="21.5" as="geometry" />
        </mxCell>
        <mxCell id="F1sbadLG9EF_W8NqqoBQ-17" value="http(s)" style="text;html=1;strokeColor=none;fillColor=none;align=center;verticalAlign=middle;whiteSpace=wrap;rounded=0;" vertex="1" parent="1">
          <mxGeometry x="620" y="600" width="60" height="30" as="geometry" />
        </mxCell>
      </root>
    </mxGraphModel>
  </diagram>
</mxfile>
